<svg xmlns="http://www.w3.org/2000/svg" viewBox="0 0 720 480" width="100%" height="100%" preserveAspectRatio="xMidYMid slice">
<defs>

  <pattern id="halftone-dense" width="6" height="6" patternUnits="userSpaceOnUse">
    <circle cx="3" cy="3" r="1.4" fill="#050b01" opacity="0.65"/>
  </pattern>
  <pattern id="halftone-stripes" width="4" height="4" patternUnits="userSpaceOnUse">
    <line x1="0" y1="2" x2="4" y2="2" stroke="#000" stroke-width="1.2" opacity="0.5"/>
  </pattern>
  <radialGradient id="vignette" cx="50%" cy="50%" r="50%">
    <stop offset="60%" stop-color="#000" stop-opacity="0"/>
    <stop offset="100%" stop-color="#000" stop-opacity="0.7"/>
  </radialGradient>
  <filter id="noise-grain">
    <feTurbulence type="fractalNoise" baseFrequency="0.85" numOctaves="3" stitchTiles="stitch" result="noise"/>
    <feColorMatrix type="matrix" values="0 0 0 0 0  0 1 0 0 0  0 0 0 0 0  0 0 0 0.18 0"/>
    <feComposite in2="SourceGraphic" in="glitch" operator="in"/>
  </filter>

</defs>
<rect width="720" height="480" fill="#8ec922"/>
<rect width="720" height="480" fill="url(#halftone-dense)" opacity="0.6"/>
<rect x="610" y="0" width="70" height="480" fill="#1c3803" opacity="0.75"/>
<line x1="610" y1="0" x2="610" y2="480" stroke="#9acd32" stroke-width="3" opacity="0.8"/>
<line x1="645" y1="0" x2="645" y2="480" stroke="#091401" stroke-width="2" opacity="0.5"/>
<g transform="translate(345, 275)">
<path d="M-280,210 C-260,130 -180,95 -100,85 C-40,80 40,80 100,85 C180,95 260,130 280,210 Z" fill="#a8ea28" stroke="#0b1603" stroke-width="4"/>
<path d="M-270,95 Q0,83 270,95" stroke="#060c02" stroke-width="5" fill="none" opacity="0.9"/>
<path d="M-270,109 Q0,97 270,109" stroke="#060c02" stroke-width="5" fill="none" opacity="0.9"/>
<path d="M-270,123 Q0,111 270,123" stroke="#060c02" stroke-width="5" fill="none" opacity="0.9"/>
<path d="M-270,137 Q0,125 270,137" stroke="#060c02" stroke-width="5" fill="none" opacity="0.9"/>
<path d="M-270,151 Q0,139 270,151" stroke="#060c02" stroke-width="5" fill="none" opacity="0.9"/>
<path d="M-270,165 Q0,153 270,165" stroke="#060c02" stroke-width="5" fill="none" opacity="0.9"/>
<path d="M-270,179 Q0,167 270,179" stroke="#060c02" stroke-width="5" fill="none" opacity="0.9"/>
<path d="M-270,193 Q0,181 270,193" stroke="#060c02" stroke-width="5" fill="none" opacity="0.9"/>
<path d="M-270,207 Q0,195 270,207" stroke="#060c02" stroke-width="5" fill="none" opacity="0.9"/>
<path d="M-180,210 C-170,130 -130,60 -90,30 C-50,85 -95,190 -100,210 Z" fill="#8ec922" stroke="#0b1603" stroke-width="4"/>
<path d="M180,210 C170,130 130,60 90,30 C50,85 95,190 100,210 Z" fill="#8ec922" stroke="#0b1603" stroke-width="4"/>
<ellipse cx="0" cy="-50" rx="105" ry="125" fill="#7db818"/>
<path d="M-115,-70 C-125,-185 125,-185 115,-70 C75,-105 -75,-105 -115,-70 Z" fill="#9ee82a" stroke="#091401" stroke-width="5"/>
<path d="M-105,-80 C-210,-85 -220,-125 -120,-135 C-80,-140 -90,-95 -105,-80 Z" fill="#b4f538" stroke="#091401" stroke-width="5"/>
<circle cx="-25" cy="-155" r="4" fill="#091401"/>
<circle cx="35" cy="-155" r="4" fill="#091401"/>
<circle cx="0" cy="-185" r="6" fill="#091401"/>
<path d="M0,-185 Q-30,-120 -30,-75" stroke="#457008" stroke-width="2.5" stroke-dasharray="4,3" fill="none"/>
<path d="M0,-185 Q30,-120 30,-75" stroke="#457008" stroke-width="2.5" stroke-dasharray="4,3" fill="none"/>
<path d="M0,-185 L0,-75" stroke="#457008" stroke-width="2.5" stroke-dasharray="4,3" fill="none"/>
<path d="M-100,-70 Q0,-55 100,-70 L95,-25 Q0,-15 -95,-25 Z" fill="#040801"/>
<rect x="-90" y="-42" width="80" height="44" rx="8" fill="none" stroke="#000" stroke-width="9"/>
<rect x="10" y="-42" width="80" height="44" rx="8" fill="none" stroke="#000" stroke-width="9"/>
<line x1="-10" y1="-24" x2="10" y2="-24" stroke="#000" stroke-width="9"/>
<line x1="-90" y1="-28" x2="-112" y2="-38" stroke="#000" stroke-width="8"/>
<line x1="90" y1="-28" x2="112" y2="-38" stroke="#000" stroke-width="8"/>
<ellipse cx="-50" cy="-20" rx="14" ry="8" fill="#d8ff66"/>
<circle cx="-50" cy="-20" r="6" fill="#000"/>
<circle cx="-52" cy="-22" r="2" fill="#fff"/>
<ellipse cx="50" cy="-20" rx="14" ry="8" fill="#d8ff66"/>
<circle cx="50" cy="-20" r="6" fill="#000"/>
<circle cx="50" cy="-22" r="2" fill="#fff"/>
<path d="M-80,-45 Q-50,-52 -20,-44" stroke="#040801" stroke-width="4" fill="none"/>
<path d="M20,-44 Q50,-52 80,-45" stroke="#040801" stroke-width="4" fill="none"/>
<path d="M-75,100 C-80,45 -50,5 -15,-5 C-5,0 -10,50 -25,100 Z" fill="#8ec922" stroke="#040801" stroke-width="4"/>
<path d="M-55,100 C-60,40 -35,-2 -3,-10 C5,-5 0,50 -10,100 Z" fill="#a8ea28" stroke="#040801" stroke-width="4"/>
<path d="M-35,100 C-40,40 -15,-5 10,-12 C18,-7 12,50 5,100 Z" fill="#7db818" stroke="#040801" stroke-width="4"/>
<path d="M75,100 C80,45 50,5 15,-5 C5,0 10,50 25,100 Z" fill="#8ec922" stroke="#040801" stroke-width="4"/>
<path d="M55,100 C60,40 35,-2 3,-10 C-5,-5 0,50 10,100 Z" fill="#a8ea28" stroke="#040801" stroke-width="4"/>
<path d="M35,100 C40,40 15,-5 -10,-12 C-18,-7 -12,50 -5,100 Z" fill="#7db818" stroke="#040801" stroke-width="4"/>
<path d="M-35,15 Q-20,11 -5,15" stroke="#193303" stroke-width="2.5" fill="none"/>
<path d="M5,15 Q20,11 35,15" stroke="#193303" stroke-width="2.5" fill="none"/>
<path d="M-35,45 Q-20,41 -5,45" stroke="#193303" stroke-width="2.5" fill="none"/>
<path d="M5,45 Q20,41 35,45" stroke="#193303" stroke-width="2.5" fill="none"/>
<path d="M-35,75 Q-20,71 -5,75" stroke="#193303" stroke-width="2.5" fill="none"/>
<path d="M5,75 Q20,71 35,75" stroke="#193303" stroke-width="2.5" fill="none"/>
<path d="M-105,100 L-95,190" stroke="#040801" stroke-width="4"/>
<path d="M105,100 L95,190" stroke="#040801" stroke-width="4"/>
<rect x="-95" y="145" width="28" height="35" fill="#000" stroke="#9acd32" stroke-width="2" rx="3"/>
</g>
<rect width="720" height="480" fill="url(#halftone-dense)" opacity="0.5" mix-blend-mode="multiply"/>
<rect width="720" height="480" fill="url(#vignette)"/>
<path d="M20,40 L20,20 L40,20 M700,40 L700,20 L680,20 M20,440 L20,460 L40,460 M700,440 L700,460 L680,460" stroke="#000" stroke-width="3" fill="none" opacity="0.6"/>
</svg>